<mxfile host="app.diagrams.net" modified="2024-05-26T16:18:38.776Z" agent="Mozilla/5.0 (Macintosh; Intel Mac OS X 10_15_7) AppleWebKit/605.1.15 (KHTML, like Gecko) Version/16.1 Safari/605.1.15" version="24.4.4" etag="avKoK6lGx5Urxts1tkvc" type="github">
  <diagram name="Page-1" id="u-WVnbDWZxlvtq3TyeI-">
    <mxGraphModel>
      <root>
        <mxCell id="0" />
        <mxCell id="1" parent="0" />
      </root>
    </mxGraphModel>
  </diagram>
</mxfile>
